<svg xmlns="http://www.w3.org/2000/svg" width="700.000000pt" height="700.000000pt" viewBox="0 0 700.000000 700.000000" preserveAspectRatio="xMidYMid meet">
<g transform="translate(0.000000,700.000000) scale(0.100000,-0.100000)" fill="#000000" stroke="none">
<path d="M437 6562 l-436 -437 29 -40 c16 -22 33 -44 37 -50 5 -5 19 -26 33 -45 13 -19 27 -37 30 -40 3 -3 268 -356 590 -785 321 -429 585 -782 587 -785 3 -3 195 -5 429 -5 l424 0 729 -729 729 -729 -28 -67 c-24 -58 -42 -116 -41 -135 0 -2 -5 -19 -10 -37 -29 -101 -31 -260 -4 -418 8 -47 43 -152 72 -220 68 -153 95 -183 994 -1081 501 -502 874 -867 901 -883 175 -103 425 -93 570 22 12 9 202 197 423 417 289 288 410 415 432 455 88 156 92 336 11 500 -29 59 -114 146 -888 920 -489 490 -883 875 -920 902 -189 135 -391 197 -621 192 -116 -2 -237 -27 -353 -72 l-74 -29 -728 728 -729 729 0 424 c0 234 -2 426 -5 429 -3 2 -140 104 -305 228 -165 123 -304 227 -310 232 -5 4 -35 26 -65 48 -30 22 -64 48 -75 57 -11 10 -50 38 -87 65 -36 26 -72 53 -80 60 -7 7 -46 36 -86 65 -40 29 -80 59 -90 67 -22 18 -576 433 -618 462 l-30 22 -437 -437z"/>
<path d="M4888 6995 c-2 -1 -34 -5 -73 -9 -157 -15 -415 -81 -550 -142 -22 -10 -42 -18 -45 -19 -3 0 -42 -20 -88 -43 -125 -64 -237 -139 -372 -247 -14 -11 -70 -65 -125 -120 -215 -214 -365 -460 -461 -755 -59 -182 -88 -354 -98 -573 l-3 -77 563 -564 c310 -310 565 -562 566 -561 2 2 26 6 53 9 28 4 59 9 70 12 61 13 284 20 355 10 14 -2 48 -7 75 -10 156 -21 376 -98 510 -180 142 -86 205 -139 421 -353 74 -73 138 -133 143 -133 15 0 147 68 231 118 253 153 493 389 649 642 49 80 125 233 158 320 35 92 91 290 98 347 4 26 8 55 10 63 13 51 20 159 19 325 -1 158 -6 212 -27 321 -29 152 -47 196 -91 223 -46 28 -73 34 -124 26 -46 -6 -57 -17 -574 -533 l-527 -526 -78 12 c-43 7 -89 14 -103 17 -60 10 -217 36 -240 40 -14 2 -81 13 -150 25 -69 12 -138 23 -155 26 -16 2 -55 9 -85 14 -30 5 -68 12 -84 14 -39 7 -36 2 -50 92 -11 68 -26 158 -31 184 -7 44 -34 203 -41 244 -3 21 -7 46 -9 55 -1 9 -15 93 -30 188 l-28 172 518 518 c306 306 524 531 532 550 26 64 10 138 -42 186 -37 34 -101 51 -315 83 -36 5 -367 13 -372 9z"/>
<path d="M1275 2511 c-585 -586 -1080 -1087 -1099 -1112 -122 -162 -177 -338 -171 -548 6 -239 92 -439 261 -603 91 -89 272 -198 327 -198 9 0 18 -4 21 -8 11 -19 156 -37 281 -36 109 1 144 6 218 28 103 31 189 72 272 132 33 23 449 432 925 908 476 477 867 868 869 871 1 2 -6 30 -17 62 -58 169 -81 318 -77 513 2 85 6 169 10 185 3 17 9 46 13 65 l7 35 -388 386 -387 386 -1065 -1066z m-270 -1336 c145 -68 221 -216 190 -370 -18 -89 -94 -182 -183 -226 -38 -19 -64 -23 -137 -24 -76 0 -98 4 -140 25 -63 32 -123 92 -155 155 -35 70 -36 208 -3 275 41 81 113 146 198 178 45 17 182 9 230 -13z"/>
</g>
</svg>